<?xml version="1.0" encoding="UTF-8" standalone="no"?>
<svg
   xmlns:dc="http://purl.org/dc/elements/1.1/"
   xmlns:cc="http://creativecommons.org/ns#"
   xmlns:rdf="http://www.w3.org/1999/02/22-rdf-syntax-ns#"
   xmlns:svg="http://www.w3.org/2000/svg"
   xmlns="http://www.w3.org/2000/svg"
   xmlns:sodipodi="http://sodipodi.sourceforge.net/DTD/sodipodi-0.dtd"
   xmlns:inkscape="http://www.inkscape.org/namespaces/inkscape"
   version="1.1"
   id="Your_Icon"
   x="0px"
   y="0px"
   width="55"
   height="55"
   viewBox="5 -10 55 74.25"
   enable-background="new 0 0 100 100"
   xml:space="preserve"
   inkscape:version="0.48.5 r10040"
   sodipodi:docname="test2.svg"><metadata
     id="metadata29"><rdf:RDF><cc:Work
         rdf:about=""><dc:format>image/svg+xml</dc:format><dc:type
           rdf:resource="http://purl.org/dc/dcmitype/StillImage" /><dc:title></dc:title></cc:Work></rdf:RDF></metadata><defs
     id="defs27" /><sodipodi:namedview
     pagecolor="#ffffff"
     bordercolor="#666666"
     borderopacity="1"
     objecttolerance="10"
     gridtolerance="10"
     guidetolerance="10"
     inkscape:pageopacity="0"
     inkscape:pageshadow="2"
     inkscape:window-width="1680"
     inkscape:window-height="984"
     id="namedview25"
     showgrid="false"
     inkscape:zoom="4.72"
     inkscape:cx="50.847458"
     inkscape:cy="50"
     inkscape:window-x="0"
     inkscape:window-y="27"
     inkscape:window-maximized="1"
     inkscape:current-layer="Your_Icon" /><g
     id="g3082"
     style="fill:#ffffff;stroke:#000000"><g
       transform="translate(0,0.62941303)"
       style="fill:#ffffff;stroke:#000000"
       id="g3079"><path
         inkscape:connector-curvature="0"
         id="path3-0"
         d="m 17.59707,-0.36046191 -18.95745,0 c -1.30885,0 -2.76462,0.665876 -2.76462,1.97472301 l 0,48.9731149 c 0,1.308847 1.45577,2.764611 2.76462,2.764611 l 69.510641,0 c 1.308855,0 1.974735,-1.455764 1.974735,-2.764611 l 0,-41.0742259 c 0,-1.308845 -0.66588,-1.974722 -1.974735,-1.974722 l -40.948081,0 -8.0111,-7.28277601 c -0.43603,-0.396525 -1.00475,-0.616114 -1.59401,-0.616114 z"
         style="fill:#ffffff;stroke:#000000;stroke-width:0.99999994000000003"
         sodipodi:nodetypes="cssssssssccc" /></g><g
       transform="translate(0.5,-5e-4)"
       style="fill:#ffffff;stroke:#000000"
       id="g3029"><g
         style="fill:#ffffff;stroke:#000000"
         id="g3017"><g
           style="fill:#ffffff;stroke:#000000"
           id="g3006"><path
             style="fill:#000000;stroke:#000000"
             d="m 17.097074,2.6391171 8.68883,7.8988899 H 67.255319 V 51.612233 H -2.2553191 V 2.6391171 H 16.702128 M 17.097074,0.26945 H -1.8603723 C -3.1692261,0.26945 -4.625,0.93532608 -4.625,2.2441724 V 51.217288 c 0,1.308847 1.4557739,2.764612 2.7646277,2.764612 H 67.650266 c 1.308854,0 1.974734,-1.455765 1.974734,-2.764612 V 10.143062 c 0,-1.3088454 -0.66588,-1.9747225 -1.974734,-1.9747225 H 26.702181 L 18.69108,0.88556338 C 18.255059,0.48903871 17.686335,0.26945 17.097074,0.26945 l 0,0 z"
             id="path3"
             inkscape:connector-curvature="0" /><path
             style="fill:#ffffff;stroke:#000000"
             d="m 33.733024,22.838158 c -0.218011,-0.133492 -0.236178,-0.377568 -0.0395,-0.541865 l 5.241734,-4.373615 c 0.196684,-0.164296 0.535548,-0.187203 0.752769,-0.05134 l 8.658814,5.668244 c 0.216431,0.135861 0.232228,0.379147 0.03317,0.541074 l -5.233835,4.259871 c -0.199053,0.161928 -0.540287,0.184045 -0.758298,0.05055 l -8.654864,-5.55292 z"
             id="path5"
             inkscape:connector-curvature="0" /><path
             style="fill:#ffffff;stroke:#000000"
             d="M 32.473144,22.635946"
             id="path7"
             inkscape:connector-curvature="0" /><path
             style="fill:#ffffff;stroke:#000000"
             d="m 43.301795,29.431361 c -0.194314,-0.167457 -0.532388,-0.195892 -0.751979,-0.06398 l -8.199095,4.942334 c -0.218801,0.131911 -0.240128,0.377567 -0.04581,0.543444 l 4.552157,3.91153 c 0.194314,0.167456 0.534758,0.198261 0.755928,0.06951 l 8.31442,-4.83096 c 0.22117,-0.128753 0.244077,-0.371248 0.04976,-0.538705 L 43.301795,29.43136 z"
             id="path9"
             inkscape:connector-curvature="0" /><path
             style="fill:#ffffff;stroke:#000000"
             d="m 33.693529,35.300236 c -0.196683,-0.164297 -0.357822,-0.08847 -0.357822,0.167457 v 9.544228 c 0,0.255924 0.179306,0.35545 0.397317,0.221958 l 8.367343,-5.140596 c 0.218011,-0.134282 0.397317,-0.453397 0.397317,-0.709321 v -0.917061 c 0,-0.255924 -0.180886,-0.36019 -0.402056,-0.230647 l -2.462099,1.439967 c -0.22117,0.128751 -0.563194,0.101106 -0.759877,-0.06319 l -5.180123,-4.312795 z"
             id="path11"
             inkscape:connector-curvature="0" /><path
             style="fill:#ffffff;stroke:#000000"
             d="m 32.27883,22.838158 c 0.2188,-0.133492 0.236178,-0.377568 0.04028,-0.541865 l -5.24173,-4.373615 c -0.196683,-0.164296 -0.535548,-0.187203 -0.752768,-0.05134 l -8.658814,5.668241 c -0.217221,0.135861 -0.232229,0.379147 -0.03397,0.541074 l 5.234625,4.259871 c 0.198264,0.161928 0.540288,0.184045 0.758298,0.05055 l 8.654075,-5.55292 z"
             id="path13"
             inkscape:connector-curvature="0" /><path
             style="fill:#ffffff;stroke:#000000"
             d="M 34.195902,22.635946"
             id="path15"
             inkscape:connector-curvature="0" /><path
             style="fill:#ffffff;stroke:#000000"
             d="m 22.710059,29.431361 c 0.193523,-0.167457 0.532388,-0.195892 0.751188,-0.06398 l 8.199096,4.942335 c 0.219591,0.131911 0.240128,0.377567 0.04581,0.543444 L 27.154,38.76469 c -0.193524,0.167456 -0.534758,0.198261 -0.755928,0.06951 l -8.31442,-4.830961 c -0.221171,-0.128752 -0.244078,-0.371248 -0.04976,-0.538704 l 4.676171,-4.033174 z"
             id="path17"
             inkscape:connector-curvature="0" /><path
             style="fill:#ffffff;stroke:#000000"
             d="m 32.318324,35.300236 c 0.196684,-0.164297 0.357822,-0.08847 0.357822,0.167457 v 9.544228 c 0,0.255924 -0.178516,0.35545 -0.396526,0.221958 L 23.911487,40.093283 C 23.694266,39.959001 23.51496,39.639886 23.51496,39.383962 v -0.917061 c 0,-0.255924 0.180886,-0.36019 0.402056,-0.230647 l 2.462098,1.439967 c 0.220381,0.128751 0.563195,0.101106 0.759878,-0.06319 l 5.179332,-4.312794 z"
             id="path19"
             inkscape:connector-curvature="0" /></g></g></g></g></svg>